<?xml version="1.0" standalone="no"?>
<!DOCTYPE svg PUBLIC "-//W3C//DTD SVG 20010904//EN"
 "http://www.w3.org/TR/2001/REC-SVG-20010904/DTD/svg10.dtd">
<svg version="1.0" xmlns="http://www.w3.org/2000/svg"
 width="128.000000pt" height="128.000000pt" viewBox="0 0 128.000000 128.000000"
 preserveAspectRatio="xMidYMid meet">
<metadata>
Created by potrace 1.16, written by Peter Selinger 2001-2019
</metadata>
<g transform="translate(0.000000,128.000000) scale(0.100000,-0.100000)"
fill="#000000" stroke="none">
<path d="M54 1230 c-54 -22 -54 -18 -54 -506 l0 -451 26 -27 27 -26 208 0 208
0 -14 -47 c-22 -72 -31 -77 -153 -83 -99 -5 -107 -7 -107 -25 0 -20 7 -20 445
-20 438 0 445 0 445 20 0 18 -8 20 -107 25 -122 6 -131 11 -153 83 l-14 47
208 0 208 0 27 26 26 27 0 453 0 453 -24 28 -24 28 -579 2 c-318 1 -588 -2
-599 -7z m1170 -62 c14 -19 16 -70 16 -350 l0 -328 -600 0 -600 0 0 328 c0
280 2 331 16 350 l15 22 569 0 569 0 15 -22z m16 -793 c0 -57 -3 -69 -25 -90
l-24 -25 -551 0 -551 0 -24 25 c-22 21 -25 33 -25 90 l0 65 600 0 600 0 0 -65z
m-466 -202 c8 -27 17 -56 21 -65 7 -17 -5 -18 -155 -18 -150 0 -162 1 -155 18
4 9 13 38 21 65 l15 47 119 0 119 0 15 -47z"/>
<path d="M70 1011 c0 -117 3 -150 14 -154 29 -11 36 17 36 140 l0 123 520 0
520 0 0 -280 0 -280 -520 0 -520 0 0 123 c0 123 -7 151 -36 140 -11 -4 -14
-37 -14 -154 l0 -149 570 0 570 0 0 320 0 320 -570 0 -570 0 0 -149z"/>
</g>
</svg>
