<?xml version="1.0" standalone="no"?>
<!DOCTYPE svg PUBLIC "-//W3C//DTD SVG 20010904//EN"
 "http://www.w3.org/TR/2001/REC-SVG-20010904/DTD/svg10.dtd">
<svg version="1.0" xmlns="http://www.w3.org/2000/svg"
 width="128.000000pt" height="128.000000pt" viewBox="0 0 128.000000 128.000000"
 preserveAspectRatio="xMidYMid meet">
<metadata>
Created by potrace 1.16, written by Peter Selinger 2001-2019
</metadata>
<g transform="translate(0.000000,128.000000) scale(0.100000,-0.100000)"
fill="#000000" stroke="none">
<path d="M220 1151 c-19 -10 -48 -37 -65 -60 -26 -37 -30 -52 -30 -105 0 -51
5 -70 28 -104 l27 -42 -44 0 c-52 0 -76 -19 -76 -59 0 -30 23 -57 55 -63 11
-2 26 -15 33 -30 17 -36 -6 -98 -37 -98 -41 0 -69 -68 -40 -97 7 -7 3 -18 -16
-37 -90 -90 -70 -257 39 -321 l43 -25 559 0 c422 0 563 3 572 12 32 32 3 118
-41 118 -21 0 -47 38 -47 70 0 33 26 70 49 70 28 0 51 33 51 71 0 45 -15 59
-63 59 l-38 0 19 28 c49 70 52 155 7 224 -24 36 -88 78 -120 78 -10 0 -15 9
-15 28 0 33 -16 52 -43 52 -26 0 -46 28 -47 63 0 38 17 67 40 67 10 0 26 7 34
16 19 18 21 75 4 92 -9 9 -113 12 -408 12 -366 0 -398 -1 -430 -19z m800 -36
c0 -13 -44 -15 -312 -17 l-313 -3 -3 -22 -3 -23 273 0 273 0 0 -65 0 -66 -321
3 c-300 3 -323 4 -343 22 -12 11 -21 29 -21 42 0 27 44 64 77 64 27 0 43 28
22 41 -17 11 -77 1 -105 -18 -51 -33 -55 -120 -8 -164 l26 -24 376 -5 c326 -4
377 -7 377 -20 0 -13 -48 -15 -372 -15 -361 0 -372 1 -400 21 -98 72 -94 188
7 241 43 23 48 23 407 23 314 0 363 -2 363 -15z m90 -338 c70 -37 98 -113 65
-176 -17 -34 -70 -81 -91 -81 -24 0 -14 24 19 45 88 56 63 182 -41 199 -20 3
-243 6 -494 6 -252 0 -458 4 -458 8 0 5 3 12 7 15 3 4 219 7 478 7 472 0 472
0 515 -23z m-26 -78 c31 -24 34 -59 6 -84 -20 -18 -20 -17 -20 9 l0 26 -207
-2 c-177 -3 -208 -5 -208 -18 0 -12 16 -16 73 -18 39 -2 72 -7 72 -12 0 -6
-117 -10 -302 -10 l-303 0 0 65 0 65 431 0 c421 0 432 0 458 -21z m-54 -214
c0 -69 -2 -125 -5 -125 -3 0 -24 10 -47 21 l-42 21 -43 -21 -43 -21 0 125 0
125 90 0 90 0 0 -125z m-230 45 c0 -20 -7 -20 -332 -20 -183 0 -339 4 -347 9
-42 26 8 31 340 31 332 0 339 0 339 -20z m0 -80 c0 -20 -7 -20 -312 -20 -293
0 -315 -1 -345 -20 -35 -21 -63 -66 -63 -102 0 -34 35 -85 69 -103 26 -13 81
-15 393 -13 355 3 363 3 363 23 0 20 -8 20 -368 25 l-369 5 -19 24 c-26 31
-24 57 6 86 l24 25 311 0 310 0 0 -40 c0 -54 18 -59 82 -22 l52 30 58 -29 c32
-16 63 -27 68 -24 6 4 10 24 10 46 0 37 1 39 33 39 l32 0 0 -70 0 -70 -96 0
c-73 0 -98 -3 -102 -14 -12 -29 16 -36 153 -36 75 0 140 -3 143 -7 4 -3 2 -12
-4 -20 -9 -10 -109 -13 -532 -13 -506 0 -522 1 -563 21 -68 32 -103 107 -84
177 11 44 64 99 106 112 16 4 167 9 337 9 301 1 307 1 307 -19z"/>
</g>
</svg>
