<?xml version="1.0" standalone="no"?>
<!DOCTYPE svg PUBLIC "-//W3C//DTD SVG 20010904//EN"
 "http://www.w3.org/TR/2001/REC-SVG-20010904/DTD/svg10.dtd">
<svg version="1.0" xmlns="http://www.w3.org/2000/svg"
 width="128.000000pt" height="128.000000pt" viewBox="0 0 128.000000 128.000000"
 preserveAspectRatio="xMidYMid meet">
<metadata>
Created by potrace 1.16, written by Peter Selinger 2001-2019
</metadata>
<g transform="translate(0.000000,128.000000) scale(0.100000,-0.100000)"
fill="#000000" stroke="none">
<path d="M463 1261 c-219 -63 -391 -239 -447 -457 -21 -81 -21 -247 0 -327 58
-225 244 -410 466 -462 81 -19 235 -19 315 0 223 52 409 237 467 462 20 77 21
238 1 319 -16 68 -59 167 -81 185 -19 15 -44 4 -44 -20 0 -10 13 -47 30 -82
41 -88 53 -157 48 -274 -6 -116 -34 -200 -96 -292 -48 -70 -92 -114 -92 -91 0
8 -14 42 -30 76 -40 79 -129 162 -207 193 -80 32 -224 32 -301 2 -102 -41
-184 -123 -226 -228 l-23 -54 -30 32 c-95 101 -144 218 -151 362 -6 126 8 192
60 297 97 193 297 318 508 319 129 0 236 -30 325 -91 24 -17 53 -30 65 -30 28
0 36 26 15 50 -26 29 -163 96 -231 114 -84 22 -259 20 -341 -3z m323 -836 c93
-45 168 -137 188 -230 6 -27 3 -32 -38 -57 -94 -57 -160 -73 -296 -73 -136 0
-202 16 -296 73 -41 25 -44 30 -38 57 24 110 121 213 237 251 67 22 174 13
243 -21z"/>
<path d="M560 1007 c-49 -16 -123 -93 -138 -143 -27 -91 -8 -169 58 -234 93
-94 227 -94 320 0 94 93 94 227 0 320 -65 65 -150 85 -240 57z m143 -61 c44
-18 95 -78 103 -121 3 -19 3 -52 -1 -72 -9 -50 -78 -119 -128 -128 -62 -12
-107 3 -153 49 -67 67 -72 154 -11 223 53 60 122 78 190 49z"/>
</g>
</svg>
