<?xml version="1.0" standalone="no"?>
<!DOCTYPE svg PUBLIC "-//W3C//DTD SVG 20010904//EN"
 "http://www.w3.org/TR/2001/REC-SVG-20010904/DTD/svg10.dtd">
<svg version="1.0" xmlns="http://www.w3.org/2000/svg"
 width="128.000000pt" height="128.000000pt" viewBox="0 0 128.000000 128.000000"
 preserveAspectRatio="xMidYMid meet">
<metadata>
Created by potrace 1.16, written by Peter Selinger 2001-2019
</metadata>
<g transform="translate(0.000000,128.000000) scale(0.100000,-0.100000)"
fill="#000000" stroke="none">
<path d="M560 1199 c-67 -13 -136 -48 -149 -76 -6 -13 -11 -44 -11 -68 l0 -45
-171 0 -171 0 -29 -29 -29 -29 0 -174 c0 -138 3 -178 15 -194 12 -15 14 -61
15 -237 0 -216 0 -218 24 -242 13 -13 39 -26 57 -30 19 -3 201 -4 404 -3 l370
3 3 22 3 23 -388 0 c-213 0 -393 4 -399 8 -28 19 -34 56 -34 226 0 97 2 176 5
176 3 0 28 -12 56 -26 94 -47 112 -3 19 47 -112 59 -110 56 -110 221 0 114 3
148 16 166 l15 22 569 0 569 0 15 -22 c13 -18 16 -52 16 -166 0 -143 0 -143
-27 -168 -66 -62 -248 -124 -404 -140 -66 -6 -69 -6 -69 15 0 52 -15 61 -100
61 -85 0 -100 -9 -100 -59 0 -26 -30 -27 -145 -5 -162 30 -147 30 -143 4 4
-28 50 -42 193 -61 l90 -11 20 -42 c37 -76 134 -76 169 1 l20 41 95 12 c111
14 241 50 311 85 27 14 52 25 55 25 10 0 5 -337 -6 -369 -13 -38 -23 -40 -164
-44 -103 -2 -110 -3 -110 -22 0 -19 8 -20 105 -23 129 -4 165 2 196 33 24 24
24 26 24 242 1 176 3 222 15 237 12 16 15 56 15 194 l0 174 -29 29 -29 29
-171 0 -171 0 0 45 c0 24 -5 55 -11 68 -21 46 -154 88 -154 49 0 -7 25 -25 55
-40 54 -27 55 -28 58 -74 3 -43 1 -48 -17 -48 -18 0 -21 6 -21 41 0 37 -3 41
-37 55 -22 10 -67 16 -113 16 -46 0 -91 -6 -113 -16 -34 -14 -37 -18 -37 -55
0 -35 -3 -41 -21 -41 -18 0 -20 5 -17 48 3 45 5 48 51 71 29 14 73 25 113 29
45 3 68 10 71 19 12 31 -36 40 -127 22z"/>
</g>
</svg>
